<svg xmlns="http://www.w3.org/2000/svg" xmlns:xlink="http://www.w3.org/1999/xlink" viewBox="0 0 275.38 246.51"><defs><style>.cls-1{fill:url(#linear-gradient);}.cls-2{fill:url(#linear-gradient-2);}.cls-3{fill:url(#linear-gradient-3);}.cls-4{fill:url(#linear-gradient-4);}.cls-5{fill:url(#linear-gradient-5);}.cls-6{fill:#f98c6e;}.cls-7,.cls-9{fill:none;stroke-miterlimit:10;}.cls-7{stroke:#f4627a;}.cls-8{fill:url(#linear-gradient-6);}.cls-9{stroke:#041628;stroke-width:2px;}</style><linearGradient id="linear-gradient" x1="145.13" y1="154.22" x2="178.45" y2="213.76" gradientUnits="userSpaceOnUse"><stop offset="0" stop-color="#a36bfc"/><stop offset="0.1" stop-color="#a96af3"/><stop offset="0.27" stop-color="#b969d9"/><stop offset="0.49" stop-color="#d366b0"/><stop offset="0.73" stop-color="#f4627a"/></linearGradient><linearGradient id="linear-gradient-2" x1="219.99" y1="196.22" x2="275.38" y2="196.22" gradientUnits="userSpaceOnUse"><stop offset="0" stop-color="#f4627a"/><stop offset="0.1" stop-color="#eb6b7d"/><stop offset="0.26" stop-color="#d18286"/><stop offset="0.47" stop-color="#a8a994"/><stop offset="0.72" stop-color="#6fdea8"/><stop offset="0.73" stop-color="#6ce0a9"/></linearGradient><linearGradient id="linear-gradient-3" x1="96.84" y1="550.47" x2="165.25" y2="668.33" gradientUnits="userSpaceOnUse"><stop offset="0" stop-color="#6666f7"/><stop offset="0.27" stop-color="#6783e5"/><stop offset="0.85" stop-color="#6bccb6"/><stop offset="1" stop-color="#6ce0a9"/></linearGradient><linearGradient id="linear-gradient-4" x1="89.93" y1="497.58" x2="116.73" y2="605.64" gradientUnits="userSpaceOnUse"><stop offset="0" stop-color="#f5637b"/><stop offset="0.26" stop-color="#e36598"/><stop offset="0.81" stop-color="#b469e1"/><stop offset="1" stop-color="#a36bfc"/></linearGradient><linearGradient id="linear-gradient-5" x1="146.35" y1="521.86" x2="214.86" y2="634.93" gradientUnits="userSpaceOnUse"><stop offset="0" stop-color="#f98c6e"/><stop offset="0.21" stop-color="#dc7f84"/><stop offset="0.65" stop-color="#935dbb"/><stop offset="1" stop-color="#5540ea"/></linearGradient><linearGradient id="linear-gradient-6" x1="59.83" y1="481" x2="74.15" y2="520.48" gradientUnits="userSpaceOnUse"><stop offset="0" stop-color="#6666f7"/><stop offset="0.04" stop-color="#6772ef"/><stop offset="0.15" stop-color="#6894da"/><stop offset="0.28" stop-color="#6aafc8"/><stop offset="0.42" stop-color="#6bc5ba"/><stop offset="0.57" stop-color="#6bd4b1"/><stop offset="0.74" stop-color="#6cddab"/><stop offset="1" stop-color="#6ce0a9"/></linearGradient></defs><g id="Layer_1" data-name="Layer 1"><polyline class="cls-1" points="79.39 210.87 225.56 209.24 275.38 196.92 226.09 183.23 53.36 180.26"/><polygon class="cls-2" points="221.62 183.19 225.28 189.22 219.99 194.99 225.28 201.05 219.99 209.23 225.56 209.24 275.38 196.92 226.09 183.23 221.62 183.19"/></g><g id="Layer_2" data-name="Layer 2"><path class="cls-3" d="M86.06,503.76c-23.71,92.77-24.64,109.53,13.26,77-46.12,27.07,51,114.24,53.83,66.78,5.48,24.64,53.4,67.08,53.4,4.1" transform="translate(-45.01 -438.01)"/><path class="cls-4" d="M49.54,486.53C40,462,52.16,442.09,83.9,438c23.93.53,37.94,14,46.08,35.07-10.15,30.52-6.92,69.2,18.69,121.51,19.54,78.94-16.06,51.56-22.9,31-8.19,13.12-25.19,13-34.23-37-5.92,8.72-4.32,5.64-10.92,9.77a8.65,8.65,0,0,1-13.32-6.89c-.55-14.55,4.57-43.64,14.17-86.62L67,503.39Z" transform="translate(-45.01 -438.01)"/><path class="cls-5" d="M125.77,475C96.08,489.28,95.65,595.49,238,672.16c7.69-5.7,6.86-14.39-21.91-32.86,0,0,18.59-4.17,19.17-13.69C236,614,202.44,603.7,202.44,603.7s33.62-4.54,32.86-13.69c-1.26-15.17-25.53-21-46.55-27.38-31.49-9.59-53.4-58.87-53.4-58.87" transform="translate(-45.01 -438.01)"/><path class="cls-6" d="M127.14,473.63a18.42,18.42,0,0,0-3,2.25l-13.73,27.5,24.9.38,6.93,2.18c7.86-1.17,11.15-7.42,11.59-16.84C152,475,136,469,127.14,473.63Z" transform="translate(-45.01 -438.01)"/><path class="cls-7" d="M49.5,487.5c-19.17-49.29,62.58-72.74,79-15.24,0,0,20.77-1.79,24.64,13.7,2.74,11-2.94,18-8,19.74-3.93,1.41-9.9-2.09-11.22-6.05-2.73-8.22,8.22-11,8.22-11" transform="translate(-45.01 -438.01)"/><path class="cls-8" d="M87.43,491.43s-16.13-7.25-21.9-8.21c-16.43-2.74-19.17,8.21-19.17,8.21-5,18.94,4.37,28.2,16.43,35.6C68.07,508.94,75.75,495.92,87.43,491.43Z" transform="translate(-45.01 -438.01)"/><polyline class="cls-9" points="50.64 28.78 37.36 36.99 51.37 44.77"/><line class="cls-9" x1="9.57" y1="31.52" x2="9.57" y2="39.42"/></g></svg>