<svg xmlns="http://www.w3.org/2000/svg" xmlns:xlink="http://www.w3.org/1999/xlink" viewBox="0 0 843.38 246.51"><defs><style>.cls-1{fill:url(#linear-gradient);}.cls-2{fill:url(#linear-gradient-2);}.cls-3{fill:url(#linear-gradient-3);}.cls-4{fill:url(#linear-gradient-4);}.cls-5{fill:url(#linear-gradient-5);}.cls-6{fill:#f98c6e;}.cls-7,.cls-9{fill:none;stroke-miterlimit:10;}.cls-7{stroke:#f4627a;}.cls-8{fill:url(#linear-gradient-6);}.cls-9{stroke:#041628;stroke-width:2px;}</style><linearGradient id="linear-gradient" x1="385.31" y1="77.44" x2="494.53" y2="272.57" gradientUnits="userSpaceOnUse"><stop offset="0" stop-color="#a36bfc"/><stop offset="0.1" stop-color="#a96af3"/><stop offset="0.27" stop-color="#b969d9"/><stop offset="0.49" stop-color="#d366b0"/><stop offset="0.73" stop-color="#f4627a"/></linearGradient><linearGradient id="linear-gradient-2" x1="787.99" y1="199.22" x2="843.38" y2="199.22" gradientUnits="userSpaceOnUse"><stop offset="0" stop-color="#f4627a"/><stop offset="0.1" stop-color="#eb6b7d"/><stop offset="0.26" stop-color="#d18286"/><stop offset="0.47" stop-color="#a8a994"/><stop offset="0.72" stop-color="#6fdea8"/><stop offset="0.73" stop-color="#6ce0a9"/></linearGradient><linearGradient id="linear-gradient-3" x1="96.84" y1="550.47" x2="165.25" y2="668.33" gradientUnits="userSpaceOnUse"><stop offset="0" stop-color="#6666f7"/><stop offset="0.27" stop-color="#6783e5"/><stop offset="0.85" stop-color="#6bccb6"/><stop offset="1" stop-color="#6ce0a9"/></linearGradient><linearGradient id="linear-gradient-4" x1="89.93" y1="497.58" x2="116.73" y2="605.64" gradientUnits="userSpaceOnUse"><stop offset="0" stop-color="#f5637b"/><stop offset="0.26" stop-color="#e36598"/><stop offset="0.81" stop-color="#b469e1"/><stop offset="1" stop-color="#a36bfc"/></linearGradient><linearGradient id="linear-gradient-5" x1="146.35" y1="521.86" x2="214.86" y2="634.93" gradientUnits="userSpaceOnUse"><stop offset="0" stop-color="#f98c6e"/><stop offset="0.21" stop-color="#dc7f84"/><stop offset="0.65" stop-color="#935dbb"/><stop offset="1" stop-color="#5540ea"/></linearGradient><linearGradient id="linear-gradient-6" x1="59.83" y1="481" x2="74.15" y2="520.48" gradientUnits="userSpaceOnUse"><stop offset="0" stop-color="#6666f7"/><stop offset="0.04" stop-color="#6772ef"/><stop offset="0.15" stop-color="#6894da"/><stop offset="0.28" stop-color="#6aafc8"/><stop offset="0.42" stop-color="#6bc5ba"/><stop offset="0.57" stop-color="#6bd4b1"/><stop offset="0.74" stop-color="#6cddab"/><stop offset="1" stop-color="#6ce0a9"/></linearGradient></defs><g id="Layer_1" data-name="Layer 1"><polyline class="cls-1" points="79.39 210.87 793.55 212.24 843.38 199.92 794.09 186.23 53.36 180.26"/><path d="M250.34,617.45l-4.91,25.66H226.64L250.76,523h15.35l-.42,10.58h.49c8.27-7.15,18.15-12.69,28-12.69,15.14,0,24.53,11.22,24.53,31.41,0,32.87-22.43,58.88-46.19,58.88-8.06,0-14.93-4.49-19-11.29h-.35Zm14.09-68.63-7.36,36.66c3.71,7.22,8.83,10.17,14.3,10.17,14.51,0,27.9-18.72,27.9-40.87,0-12.55-5-18.44-12.83-18.44C279.78,536.34,271,540.41,264.43,548.82Z" transform="translate(-45.01 -438.01)"/><path d="M331.09,579.74c0-32.88,22.43-58.89,46.2-58.89A22.08,22.08,0,0,1,397.05,533h.49l3.58-10h15.14L399,609H383.66l.85-12H384c-8.13,8.48-18.57,14.09-28.39,14.09C340.48,611.14,331.09,600,331.09,579.74Zm54.82,1.4,7-34.35c-3.93-7.36-9.26-10.45-14.51-10.45-14.51,0-27.9,18.72-27.9,40.87,0,12.62,5,18.44,12.83,18.44C370.7,595.65,379,591.58,385.91,581.14Z" transform="translate(-45.01 -438.01)"/><path d="M441.22,523h15.35L455,539.57h.7c6.8-10.66,16.26-18.72,26.49-18.72a19.34,19.34,0,0,1,8.63,1.61l-6.31,16.48c-2-1.12-5.05-1.4-8-1.4-8.07,0-16.34,6.38-23.42,19.48L443,609H424.18Z" transform="translate(-45.01 -438.01)"/><path d="M504.83,523h15.35l-1.54,16.61h.7c6.8-10.66,16.26-18.72,26.5-18.72a19.29,19.29,0,0,1,8.62,1.61l-6.31,16.48c-2-1.12-5-1.4-8-1.4-8.06,0-16.33,6.38-23.41,19.48l-10.17,52H487.8Z" transform="translate(-45.01 -438.01)"/><path d="M551.69,576.09c0-32.88,23.77-55.24,47.39-55.24,19.35,0,32.1,13.6,32.1,35,0,32.88-23.76,55.24-47.38,55.24C564.45,611.14,551.69,597.54,551.69,576.09Zm60.5-19.56c0-13-5.26-20.4-15.14-20.4-13.67,0-26.36,17.32-26.36,39.33,0,13,5.26,20.4,15.14,20.4C599.5,595.86,612.19,578.54,612.19,556.53Z" transform="translate(-45.01 -438.01)"/><path d="M649.06,590.11A61,61,0,0,1,650.18,580l8.76-42.13H646.89l2.8-14,13-.91,6.87-23.14h15.77L680.88,523h20.61l-2.94,14.86h-21l-8.76,42.9a35.53,35.53,0,0,0-.49,6c0,6.37,2.8,9.53,10,9.53a18,18,0,0,0,8-2.31l3.65,13.31a46.84,46.84,0,0,1-18.3,3.86C655.37,611.14,649.06,602.1,649.06,590.11Z" transform="translate(-45.01 -438.01)"/><path d="M749.44,494.43h22.29L784.14,609H764.37L760,545.11c-.78-11.71-1.69-23.14-2.25-35.68H757c-5.54,12.47-10.65,23.69-16.54,35.68L708.92,609H688Zm-28.88,67.92h51.38l-3.36,14.44H717.05Z" transform="translate(-45.01 -438.01)"/><path d="M819.36,494.43h18.93L815.37,609H796.44Z" transform="translate(-45.01 -438.01)"/><polygon class="cls-2" points="789.62 186.19 793.28 192.22 787.99 197.99 793.28 204.05 787.99 212.23 793.55 212.24 843.38 199.92 794.09 186.23 789.62 186.19"/></g><g id="Layer_2" data-name="Layer 2"><path class="cls-3" d="M86.06,503.76c-23.71,92.77-24.64,109.53,13.26,77-46.12,27.07,51,114.24,53.83,66.78,5.48,24.64,53.4,67.08,53.4,4.1" transform="translate(-45.01 -438.01)"/><path class="cls-4" d="M49.54,486.53C40,462,52.16,442.09,83.9,438c23.93.53,37.94,14,46.08,35.07-10.15,30.52-6.92,69.2,18.69,121.51,19.54,78.94-16.06,51.56-22.9,31-8.19,13.12-25.19,13-34.23-37-5.92,8.72-4.32,5.64-10.92,9.77a8.65,8.65,0,0,1-13.32-6.89c-.55-14.55,4.57-43.64,14.17-86.62L67,503.39Z" transform="translate(-45.01 -438.01)"/><path class="cls-5" d="M125.77,475C96.08,489.28,95.65,595.49,238,672.16c7.69-5.7,6.86-14.39-21.91-32.86,0,0,18.59-4.17,19.17-13.69C236,614,202.44,603.7,202.44,603.7s33.62-4.54,32.86-13.69c-1.26-15.17-25.53-21-46.55-27.38-31.49-9.59-53.4-58.87-53.4-58.87" transform="translate(-45.01 -438.01)"/><path class="cls-6" d="M127.14,473.63a18.42,18.42,0,0,0-3,2.25l-13.73,27.5,24.9.38,6.93,2.18c7.86-1.17,11.15-7.42,11.59-16.84C152,475,136,469,127.14,473.63Z" transform="translate(-45.01 -438.01)"/><path class="cls-7" d="M49.5,487.5c-19.17-49.29,62.58-72.74,79-15.24,0,0,20.77-1.79,24.64,13.7,2.74,11-2.94,18-8,19.74-3.93,1.41-9.9-2.09-11.22-6.05-2.73-8.22,8.22-11,8.22-11" transform="translate(-45.01 -438.01)"/><path class="cls-7" d="M525.56,737.88" transform="translate(-45.01 -438.01)"/><path class="cls-7" d="M487.22,768" transform="translate(-45.01 -438.01)"/><path class="cls-8" d="M87.43,491.43s-16.13-7.25-21.9-8.21c-16.43-2.74-19.17,8.21-19.17,8.21-5,18.94,4.37,28.2,16.43,35.6C68.07,508.94,75.75,495.92,87.43,491.43Z" transform="translate(-45.01 -438.01)"/><polyline class="cls-9" points="50.64 28.78 37.36 36.99 51.37 44.77"/><line class="cls-9" x1="9.57" y1="31.52" x2="9.57" y2="39.42"/></g></svg>